<?xml version="1.0" encoding="UTF-8" standalone="no"?>
<!-- Created with Inkscape (http://www.inkscape.org/) -->

<svg
   xmlns:dc="http://purl.org/dc/elements/1.1/"
   xmlns:cc="http://creativecommons.org/ns#"
   xmlns:rdf="http://www.w3.org/1999/02/22-rdf-syntax-ns#"
   xmlns:svg="http://www.w3.org/2000/svg"
   xmlns="http://www.w3.org/2000/svg"
   xmlns:sodipodi="http://sodipodi.sourceforge.net/DTD/sodipodi-0.dtd"
   xmlns:inkscape="http://www.inkscape.org/namespaces/inkscape"
   version="1.1"
   id="svg2"
   width="210"
   height="200"
   viewBox="0 0 210 200"
   sodipodi:docname="axoloti_logo_centerline.svg"
   inkscape:version="0.92.3 (2405546, 2018-03-11)">
  <metadata
     id="metadata8">
    <rdf:RDF>
      <cc:Work
         rdf:about="">
        <dc:format>image/svg+xml</dc:format>
        <dc:type
           rdf:resource="http://purl.org/dc/dcmitype/StillImage" />
        <dc:title />
      </cc:Work>
    </rdf:RDF>
  </metadata>
  <defs
     id="defs6" />
  <sodipodi:namedview
     pagecolor="#ffffff"
     bordercolor="#666666"
     borderopacity="1"
     objecttolerance="10"
     gridtolerance="10"
     guidetolerance="10"
     inkscape:pageopacity="0"
     inkscape:pageshadow="2"
     inkscape:window-width="1366"
     inkscape:window-height="741"
     id="namedview4"
     showgrid="true"
     showguides="true"
     inkscape:guide-bbox="true"
     inkscape:measure-start="157.556,108.283"
     inkscape:measure-end="197.675,108.283"
     inkscape:snap-center="true"
     inkscape:snap-global="true"
     inkscape:snap-bbox="true"
     inkscape:snap-bbox-midpoints="true"
     fit-margin-top="10"
     fit-margin-left="10"
     fit-margin-right="10"
     fit-margin-bottom="10"
     inkscape:zoom="2"
     inkscape:cx="59.62754"
     inkscape:cy="112.93489"
     inkscape:window-x="0"
     inkscape:window-y="27"
     inkscape:window-maximized="1"
     inkscape:current-layer="svg2">
    <inkscape:grid
       type="xygrid"
       id="grid832"
       spacingx="0.5"
       spacingy="0.5"
       empspacing="5"
       originx="3.0390249"
       originy="3.0427274" />
  </sodipodi:namedview>
  <g
     id="g13434">
    <g
       id="g13414">
      <path
         id="path997"
         style="fill:none;fill-rule:evenodd;stroke:#000000;stroke-width:6;stroke-linecap:round;stroke-linejoin:round;stroke-miterlimit:4;stroke-dasharray:none;stroke-opacity:1"
         d="m 180.53903,186.95727 h 10 m -10,-20 h 5 v 20 m 0,-32.5 z m 0,0 v 0.1"
         inkscape:connector-curvature="0" />
      <path
         id="path993"
         style="fill:none;fill-rule:evenodd;stroke:#000000;stroke-width:6;stroke-linecap:round;stroke-linejoin:round;stroke-miterlimit:4;stroke-dasharray:none;stroke-opacity:1"
         d="m 160.53903,156.95727 v 25 l 5,5 h 2.5 m -12.5,-20 h 12.5"
         inkscape:connector-curvature="0" />
      <path
         style="fill:none;fill-rule:evenodd;stroke:#000000;stroke-width:6;stroke-linecap:round;stroke-linejoin:round;stroke-miterlimit:4;stroke-dasharray:none;stroke-opacity:1"
         d="m 130.53903,186.95727 -5,-5 v -10 l 5,-5 h 10 l 5,5 v 10 l -5,5 z"
         id="path991"
         inkscape:connector-curvature="0" />
      <path
         id="path987"
         style="fill:none;fill-rule:evenodd;stroke:#000000;stroke-width:6;stroke-linecap:round;stroke-linejoin:round;stroke-miterlimit:4;stroke-dasharray:none;stroke-opacity:1"
         d="m 105.53903,186.95727 h 10 m -5,0 v -30 h -5"
         inkscape:connector-curvature="0" />
      <path
         style="fill:none;fill-rule:evenodd;stroke:#000000;stroke-width:6;stroke-linecap:round;stroke-linejoin:round;stroke-miterlimit:4;stroke-dasharray:none;stroke-opacity:1"
         d="m 80.539025,186.95727 -5,-5 v -10 l 5,-5 h 10 l 5,5 v 10 l -5,5 z"
         id="path985"
         inkscape:connector-curvature="0" />
      <path
         id="path981"
         style="fill:none;fill-rule:evenodd;stroke:#000000;stroke-width:6;stroke-linecap:round;stroke-linejoin:round;stroke-miterlimit:4;stroke-dasharray:none;stroke-opacity:1"
         d="m 45.539025,186.95727 20,-20 m -20,0 20,20"
         inkscape:connector-curvature="0" />
      <path
         id="path922"
         style="fill:none;fill-rule:evenodd;stroke:#000000;stroke-width:6;stroke-linecap:round;stroke-linejoin:round;stroke-miterlimit:4;stroke-dasharray:none;stroke-opacity:1"
         d="m 13.039025,186.95727 v -20 l 10,-10 10,10 v 20 m -20,-10 h 20"
         inkscape:connector-curvature="0" />
    </g>
    <g
       transform="translate(3.0390249,-323.04272)"
       style="stroke-width:6;stroke-miterlimit:4;stroke-dasharray:none;stroke:#000000;fill:none"
       id="g902" />
    <g
       style="stroke-width:6;stroke-miterlimit:4;stroke-dasharray:none;stroke:#000000;fill:none"
       inkscape:transform-center-y="-30"
       transform="rotate(30,746.82545,211.64954)"
       inkscape:transform-center-x="51.961524"
       id="g892" />
    <g
       style="stroke-width:6;stroke-miterlimit:4;stroke-dasharray:none;stroke:#000000;fill:none"
       id="g898"
       inkscape:transform-center-x="30"
       transform="rotate(60,423.78272,208.61051)"
       inkscape:transform-center-y="-51.961524" />
    <g
       style="stroke-width:6;stroke-miterlimit:4;stroke-dasharray:none;stroke:#000000;fill:none"
       transform="matrix(-1,0,0,1,328.03902,-323.04272)"
       id="g908" />
    <g
       style="stroke-width:6;stroke-miterlimit:4;stroke-dasharray:none;stroke:#000000;fill:none"
       id="g914"
       inkscape:transform-center-x="-51.961524"
       transform="matrix(-0.8660254,0.5,0.5,0.8660254,125.19764,-345.05706)"
       inkscape:transform-center-y="-30.000001" />
    <g
       transform="matrix(-0.5,0.8660254,0.8660254,0.5,-121.4753,-222.70135)"
       id="g975"
       style="fill:none;stroke:#000000;stroke-width:6;stroke-miterlimit:4;stroke-dasharray:none">
      <path
         transform="matrix(-0.5,0.86602541,0.86602541,0.5,-84.514333,25.700359)"
         id="path870"
         d="m 147.5,367.5 h 30"
         style="fill:none;fill-rule:evenodd;stroke:#000000;stroke-width:6;stroke-linecap:round;stroke-linejoin:round;stroke-miterlimit:4;stroke-dasharray:none;stroke-opacity:1"
         inkscape:connector-curvature="0" />
      <circle
         transform="matrix(-0.5,0.86602541,0.86602541,0.5,-84.514333,25.700359)"
         r="2.5"
         cy="352.5"
         cx="127.5"
         id="path882"
         style="opacity:1;fill:#000000;fill-opacity:1;stroke:#000000;stroke-width:6;stroke-linecap:round;stroke-linejoin:round;stroke-miterlimit:4;stroke-dasharray:none;stroke-opacity:1" />
      <circle
         transform="matrix(-0.5,0.86602541,0.86602541,0.5,-84.514333,25.700359)"
         style="opacity:1;fill:#000000;fill-opacity:1;stroke:#000000;stroke-width:6;stroke-linecap:round;stroke-linejoin:round;stroke-miterlimit:4;stroke-dasharray:none;stroke-opacity:1"
         id="circle884"
         cx="197.5"
         cy="352.5"
         r="2.5" />
      <path
         d="m 82.5,375 -20,-7.5 20,-7.5 m 20,7.5 h -40 M 94.288477,403.99519 73.217969,407.5 86.788477,391.00481 M 107.85898,387.5 l -34.641011,20 m 70.869201,49.25094 2.13879,-20.70448 12.20448,16.86121 m -3.69968,-46.59197 -11.25,19.48557 7.77783,29.02788 M 138.99519,277.14746 122.5,263.57695 l 3.50481,21.07051 m 16.49519,13.5705 -20,-34.64101 m 47.5,9.28203 -7.5,-20 -7.5,20 m 7.5,20 v -40 m 78.08717,36.74906 -16.86121,12.20448 20.70448,2.13878 m -42.19967,20.09198 11.25,-19.48557 29.02782,-7.7782 m -114.6496,16.07947 -20,34.64102 c -11.080004,19.19112 -4.55011,43.56101 14.64101,54.64101 19.19113,11.08 43.56102,4.55011 54.64102,-14.64101 l 20,-34.64102 c 11.08,-19.19112 4.55011,-43.56102 -14.64102,-54.64102 -19.19112,-11.08 -43.56101,-4.5501 -54.64101,14.64102 z"
         style="fill:none;fill-rule:evenodd;stroke:#000000;stroke-width:6;stroke-linecap:round;stroke-linejoin:round;stroke-miterlimit:4;stroke-dasharray:none;stroke-opacity:1"
         id="path918"
         inkscape:connector-curvature="0"
         sodipodi:nodetypes="ccccccccccccccccccccccccccccccccsssssss" />
    </g>
  </g>
</svg>
