<?xml version="1.0" encoding="UTF-8" standalone="no"?>
<!-- Created with Inkscape (http://www.inkscape.org/) -->

<svg
   xmlns:dc="http://purl.org/dc/elements/1.1/"
   xmlns:cc="http://creativecommons.org/ns#"
   xmlns:rdf="http://www.w3.org/1999/02/22-rdf-syntax-ns#"
   xmlns:svg="http://www.w3.org/2000/svg"
   xmlns="http://www.w3.org/2000/svg"
   xmlns:sodipodi="http://sodipodi.sourceforge.net/DTD/sodipodi-0.dtd"
   xmlns:inkscape="http://www.inkscape.org/namespaces/inkscape"
   version="1.1"
   id="svg2"
   width="210"
   height="200"
   viewBox="0 0 210 200"
   sodipodi:docname="axoloti_logo_outline.svg"
   inkscape:version="0.92.3 (2405546, 2018-03-11)">
  <metadata
     id="metadata8">
    <rdf:RDF>
      <cc:Work
         rdf:about="">
        <dc:format>image/svg+xml</dc:format>
        <dc:type
           rdf:resource="http://purl.org/dc/dcmitype/StillImage" />
        <dc:title />
      </cc:Work>
    </rdf:RDF>
  </metadata>
  <defs
     id="defs6" />
  <sodipodi:namedview
     pagecolor="#ffffff"
     bordercolor="#666666"
     borderopacity="1"
     objecttolerance="10"
     gridtolerance="10"
     guidetolerance="10"
     inkscape:pageopacity="0"
     inkscape:pageshadow="2"
     inkscape:window-width="1366"
     inkscape:window-height="741"
     id="namedview4"
     showgrid="true"
     showguides="true"
     inkscape:guide-bbox="true"
     inkscape:measure-start="157.556,108.283"
     inkscape:measure-end="197.675,108.283"
     inkscape:snap-center="true"
     inkscape:snap-global="true"
     inkscape:snap-bbox="true"
     inkscape:snap-bbox-midpoints="true"
     fit-margin-top="10"
     fit-margin-left="10"
     fit-margin-right="10"
     fit-margin-bottom="10"
     inkscape:zoom="2"
     inkscape:cx="32.559535"
     inkscape:cy="74.275919"
     inkscape:window-x="0"
     inkscape:window-y="27"
     inkscape:window-maximized="1"
     inkscape:current-layer="svg2">
    <inkscape:grid
       type="xygrid"
       id="grid832"
       spacingx="0.5"
       spacingy="0.5"
       empspacing="5"
       originx="3.0390249"
       originy="3.0427274" />
  </sodipodi:namedview>
  <g
     id="g14071">
    <g
       id="g1727">
      <path
         style="color:#000000;font-style:normal;font-variant:normal;font-weight:normal;font-stretch:normal;font-size:medium;line-height:normal;font-family:sans-serif;font-variant-ligatures:normal;font-variant-position:normal;font-variant-caps:normal;font-variant-numeric:normal;font-variant-alternates:normal;font-feature-settings:normal;text-indent:0;text-align:start;text-decoration:none;text-decoration-line:none;text-decoration-style:solid;text-decoration-color:#000000;letter-spacing:normal;word-spacing:normal;text-transform:none;writing-mode:lr-tb;direction:ltr;text-orientation:mixed;dominant-baseline:auto;baseline-shift:baseline;text-anchor:start;white-space:normal;shape-padding:0;clip-rule:nonzero;display:inline;overflow:visible;visibility:visible;opacity:1;isolation:auto;mix-blend-mode:normal;color-interpolation:sRGB;color-interpolation-filters:linearRGB;solid-color:#000000;solid-opacity:1;vector-effect:none;fill:#000000;fill-opacity:1;fill-rule:evenodd;stroke:none;stroke-width:6;stroke-linecap:round;stroke-linejoin:round;stroke-miterlimit:4;stroke-dasharray:none;stroke-dashoffset:0;stroke-opacity:1;color-rendering:auto;image-rendering:auto;shape-rendering:auto;text-rendering:auto;enable-background:accumulate"
         d="m 185.49414,151.41406 c -1.65609,0.0248 -2.97882,1.38686 -2.95508,3.04297 v 0.0996 c -0.0574,4.05697 6.05738,4.05697 6,0 v -0.0996 c 0.0242,-1.69129 -1.35364,-3.0683 -3.04492,-3.04297 z m -4.95508,12.54297 c -4.05697,-0.0574 -4.05697,6.05738 0,6 h 2 v 14 h -2 c -4.05697,-0.0574 -4.05697,6.05738 0,6 h 4.50782 c 0.32397,0.0536 0.65454,0.0536 0.97851,0 h 4.51367 c 4.05697,0.0574 4.05697,-6.05738 0,-6 h -2 v -17 c -1.7e-4,-1.65679 -1.34321,-2.99983 -3,-3 z"
         id="path997"
         inkscape:connector-curvature="0"
         sodipodi:nodetypes="cccccccccccccccccccc" />
      <path
         style="color:#000000;font-style:normal;font-variant:normal;font-weight:normal;font-stretch:normal;font-size:medium;line-height:normal;font-family:sans-serif;font-variant-ligatures:normal;font-variant-position:normal;font-variant-caps:normal;font-variant-numeric:normal;font-variant-alternates:normal;font-feature-settings:normal;text-indent:0;text-align:start;text-decoration:none;text-decoration-line:none;text-decoration-style:solid;text-decoration-color:#000000;letter-spacing:normal;word-spacing:normal;text-transform:none;writing-mode:lr-tb;direction:ltr;text-orientation:mixed;dominant-baseline:auto;baseline-shift:baseline;text-anchor:start;white-space:normal;shape-padding:0;clip-rule:nonzero;display:inline;overflow:visible;visibility:visible;opacity:1;isolation:auto;mix-blend-mode:normal;color-interpolation:sRGB;color-interpolation-filters:linearRGB;solid-color:#000000;solid-opacity:1;vector-effect:none;fill:#000000;fill-opacity:1;fill-rule:evenodd;stroke:none;stroke-width:6;stroke-linecap:round;stroke-linejoin:round;stroke-miterlimit:4;stroke-dasharray:none;stroke-dashoffset:0;stroke-opacity:1;color-rendering:auto;image-rendering:auto;shape-rendering:auto;text-rendering:auto;enable-background:accumulate"
         d="m 160.49414,153.91406 c -1.65609,0.0248 -2.97882,1.38686 -2.95508,3.04297 v 7 h -2 c -4.05697,-0.0574 -4.05697,6.05738 0,6 h 2 v 12 c 1.6e-4,0.7956 0.3163,1.55856 0.87891,2.12109 l 5,5 c 0.56253,0.56261 1.32549,0.87875 2.12109,0.87891 h 2.5 c 4.05697,0.0574 4.05697,-6.05738 0,-6 h -1.25781 l -3.24219,-3.24219 v -10.75781 h 4.5 c 4.05697,0.0574 4.05697,-6.05738 0,-6 h -4.5 v -7 c 0.0242,-1.69129 -1.35364,-3.0683 -3.04492,-3.04297 z"
         id="path993"
         inkscape:connector-curvature="0"
         sodipodi:nodetypes="cccccccccccccccccccc" />
      <path
         style="color:#000000;font-style:normal;font-variant:normal;font-weight:normal;font-stretch:normal;font-size:medium;line-height:normal;font-family:sans-serif;font-variant-ligatures:normal;font-variant-position:normal;font-variant-caps:normal;font-variant-numeric:normal;font-variant-alternates:normal;font-feature-settings:normal;text-indent:0;text-align:start;text-decoration:none;text-decoration-line:none;text-decoration-style:solid;text-decoration-color:#000000;letter-spacing:normal;word-spacing:normal;text-transform:none;writing-mode:lr-tb;direction:ltr;text-orientation:mixed;dominant-baseline:auto;baseline-shift:baseline;text-anchor:start;white-space:normal;shape-padding:0;clip-rule:nonzero;display:inline;overflow:visible;visibility:visible;opacity:1;isolation:auto;mix-blend-mode:normal;color-interpolation:sRGB;color-interpolation-filters:linearRGB;solid-color:#000000;solid-opacity:1;vector-effect:none;fill:#000000;fill-opacity:1;fill-rule:evenodd;stroke:none;stroke-width:6;stroke-linecap:round;stroke-linejoin:round;stroke-miterlimit:4;stroke-dasharray:none;stroke-dashoffset:0;stroke-opacity:1;color-rendering:auto;image-rendering:auto;shape-rendering:auto;text-rendering:auto;enable-background:accumulate"
         d="m 130.53906,163.95703 c -0.7956,1.6e-4 -1.55856,0.3163 -2.12109,0.87891 l -5,5 c -0.56261,0.56253 -0.87875,1.32549 -0.87891,2.12109 v 10 c 1.6e-4,0.7956 0.3163,1.55856 0.87891,2.12109 l 5,5 c 0.56253,0.56261 1.32549,0.87875 2.12109,0.87891 h 10 c 0.7956,-1.5e-4 1.55856,-0.3163 2.1211,-0.87891 l 5,-5 c 0.56261,-0.56254 0.87875,-1.3255 0.8789,-2.12109 v -10 c -1.5e-4,-0.79559 -0.31629,-1.55855 -0.8789,-2.12109 l -5,-5 c -0.56254,-0.56261 -1.3255,-0.87876 -2.1211,-0.87891 z m 1.24219,6 h 7.51563 l 3.24218,3.24219 v 7.51562 l -3.24218,3.24219 h -7.51563 l -3.24219,-3.24219 v -7.51562 z"
         id="path991"
         inkscape:connector-curvature="0"
         sodipodi:nodetypes="cccccccccccccccccccccccccc" />
      <path
         style="color:#000000;font-style:normal;font-variant:normal;font-weight:normal;font-stretch:normal;font-size:medium;line-height:normal;font-family:sans-serif;font-variant-ligatures:normal;font-variant-position:normal;font-variant-caps:normal;font-variant-numeric:normal;font-variant-alternates:normal;font-feature-settings:normal;text-indent:0;text-align:start;text-decoration:none;text-decoration-line:none;text-decoration-style:solid;text-decoration-color:#000000;letter-spacing:normal;word-spacing:normal;text-transform:none;writing-mode:lr-tb;direction:ltr;text-orientation:mixed;dominant-baseline:auto;baseline-shift:baseline;text-anchor:start;white-space:normal;shape-padding:0;clip-rule:nonzero;display:inline;overflow:visible;visibility:visible;opacity:1;isolation:auto;mix-blend-mode:normal;color-interpolation:sRGB;color-interpolation-filters:linearRGB;solid-color:#000000;solid-opacity:1;vector-effect:none;fill:#000000;fill-opacity:1;fill-rule:evenodd;stroke:none;stroke-width:6;stroke-linecap:round;stroke-linejoin:round;stroke-miterlimit:4;stroke-dasharray:none;stroke-dashoffset:0;stroke-opacity:1;color-rendering:auto;image-rendering:auto;shape-rendering:auto;text-rendering:auto;enable-background:accumulate"
         d="m 105.53906,153.95703 c -4.05697,-0.0574 -4.05697,6.05738 0,6 h 2 v 24 h -2 c -4.05697,-0.0574 -4.05697,6.05738 0,6 h 4.50782 c 0.32397,0.0536 0.65454,0.0536 0.97851,0 h 4.51367 c 4.05697,0.0574 4.05697,-6.05738 0,-6 h -2 v -27 c -1.7e-4,-1.65679 -1.34321,-2.99983 -3,-3 z"
         id="path987"
         inkscape:connector-curvature="0"
         sodipodi:nodetypes="cccccccccccccc" />
      <path
         style="color:#000000;font-style:normal;font-variant:normal;font-weight:normal;font-stretch:normal;font-size:medium;line-height:normal;font-family:sans-serif;font-variant-ligatures:normal;font-variant-position:normal;font-variant-caps:normal;font-variant-numeric:normal;font-variant-alternates:normal;font-feature-settings:normal;text-indent:0;text-align:start;text-decoration:none;text-decoration-line:none;text-decoration-style:solid;text-decoration-color:#000000;letter-spacing:normal;word-spacing:normal;text-transform:none;writing-mode:lr-tb;direction:ltr;text-orientation:mixed;dominant-baseline:auto;baseline-shift:baseline;text-anchor:start;white-space:normal;shape-padding:0;clip-rule:nonzero;display:inline;overflow:visible;visibility:visible;opacity:1;isolation:auto;mix-blend-mode:normal;color-interpolation:sRGB;color-interpolation-filters:linearRGB;solid-color:#000000;solid-opacity:1;vector-effect:none;fill:#000000;fill-opacity:1;fill-rule:evenodd;stroke:none;stroke-width:6;stroke-linecap:round;stroke-linejoin:round;stroke-miterlimit:4;stroke-dasharray:none;stroke-dashoffset:0;stroke-opacity:1;color-rendering:auto;image-rendering:auto;shape-rendering:auto;text-rendering:auto;enable-background:accumulate"
         d="m 80.539062,163.95703 c -0.795597,1.5e-4 -1.558559,0.3163 -2.121093,0.87891 l -5,5 c -0.562608,0.56253 -0.878753,1.32549 -0.878907,2.12109 v 10 c 1.54e-4,0.7956 0.316299,1.55856 0.878907,2.12109 l 5,5 c 0.562534,0.56261 1.325496,0.87876 2.121093,0.87891 h 10 c 0.795598,-1.5e-4 1.558559,-0.3163 2.121094,-0.87891 l 5,-5 c 0.562608,-0.56253 0.878752,-1.32549 0.878906,-2.12109 v -10 c -1.54e-4,-0.7956 -0.316298,-1.55856 -0.878906,-2.12109 l -5,-5 c -0.562535,-0.56261 -1.325496,-0.87876 -2.121094,-0.87891 z m 1.242188,6 h 7.515625 l 3.242187,3.24219 v 7.51562 l -3.242187,3.24219 H 81.78125 l -3.242188,-3.24219 v -7.51562 z"
         id="path985"
         inkscape:connector-curvature="0"
         sodipodi:nodetypes="cccccccccccccccccccccccccc" />
      <path
         style="color:#000000;font-style:normal;font-variant:normal;font-weight:normal;font-stretch:normal;font-size:medium;line-height:normal;font-family:sans-serif;font-variant-ligatures:normal;font-variant-position:normal;font-variant-caps:normal;font-variant-numeric:normal;font-variant-alternates:normal;font-feature-settings:normal;text-indent:0;text-align:start;text-decoration:none;text-decoration-line:none;text-decoration-style:solid;text-decoration-color:#000000;letter-spacing:normal;word-spacing:normal;text-transform:none;writing-mode:lr-tb;direction:ltr;text-orientation:mixed;dominant-baseline:auto;baseline-shift:baseline;text-anchor:start;white-space:normal;shape-padding:0;clip-rule:nonzero;display:inline;overflow:visible;visibility:visible;opacity:1;isolation:auto;mix-blend-mode:normal;color-interpolation:sRGB;color-interpolation-filters:linearRGB;solid-color:#000000;solid-opacity:1;vector-effect:none;fill:#000000;fill-opacity:1;fill-rule:evenodd;stroke:none;stroke-width:6;stroke-linecap:round;stroke-linejoin:round;stroke-miterlimit:4;stroke-dasharray:none;stroke-dashoffset:0;stroke-opacity:1;color-rendering:auto;image-rendering:auto;shape-rendering:auto;text-rendering:auto;enable-background:accumulate"
         d="m 45.507812,163.92773 c -2.691305,0.002 -4.018501,3.27332 -2.089843,5.15039 l 7.878906,7.87891 -7.878906,7.87891 c -2.945204,2.82752 1.414668,7.18739 4.242187,4.24218 l 7.878906,-7.8789 7.878907,7.8789 c 2.827519,2.94521 7.187391,-1.41466 4.242187,-4.24218 l -7.878906,-7.87891 7.878906,-7.87891 c 2.945204,-2.82752 -1.414668,-7.18739 -4.242187,-4.24218 l -7.878907,7.8789 -7.878906,-7.8789 c -0.565285,-0.58109 -1.34166,-0.90869 -2.152344,-0.90821 z"
         id="path981"
         inkscape:connector-curvature="0"
         sodipodi:nodetypes="cccccccccccccc" />
      <path
         style="color:#000000;font-style:normal;font-variant:normal;font-weight:normal;font-stretch:normal;font-size:medium;line-height:normal;font-family:sans-serif;font-variant-ligatures:normal;font-variant-position:normal;font-variant-caps:normal;font-variant-numeric:normal;font-variant-alternates:normal;font-feature-settings:normal;text-indent:0;text-align:start;text-decoration:none;text-decoration-line:none;text-decoration-style:solid;text-decoration-color:#000000;letter-spacing:normal;word-spacing:normal;text-transform:none;writing-mode:lr-tb;direction:ltr;text-orientation:mixed;dominant-baseline:auto;baseline-shift:baseline;text-anchor:start;white-space:normal;shape-padding:0;clip-rule:nonzero;display:inline;overflow:visible;visibility:visible;opacity:1;isolation:auto;mix-blend-mode:normal;color-interpolation:sRGB;color-interpolation-filters:linearRGB;solid-color:#000000;solid-opacity:1;vector-effect:none;fill:#000000;fill-opacity:1;fill-rule:evenodd;stroke:none;stroke-width:6;stroke-linecap:round;stroke-linejoin:round;stroke-miterlimit:4;stroke-dasharray:none;stroke-dashoffset:0;stroke-opacity:1;color-rendering:auto;image-rendering:auto;shape-rendering:auto;text-rendering:auto;enable-background:accumulate"
         d="m 22.994141,153.95703 c -0.780001,0.0119 -1.524692,0.32717 -2.076172,0.87891 l -10,10 c -0.562608,0.56253 -0.878753,1.32549 -0.878907,2.12109 v 9.50781 c -0.053548,0.32398 -0.053548,0.65454 0,0.97852 v 9.51367 c -0.057376,4.05697 6.057376,4.05697 6,0 v -7 h 14 v 7 c -0.05738,4.05697 6.057376,4.05697 6,0 v -9.50781 c 0.0529,-0.32206 0.0529,-0.6506 0,-0.97266 v -9.51953 c -1.54e-4,-0.7956 -0.316298,-1.55856 -0.878906,-2.12109 l -10,-10 c -0.573495,-0.57375 -1.35488,-0.89081 -2.166015,-0.87891 z m 0.04492,7.24219 7,7 v 5.75781 h -14 v -5.75781 z"
         id="path922"
         inkscape:connector-curvature="0"
         sodipodi:nodetypes="cccccccccccccccccccccccc" />
    </g>
    <g
       id="g1718">
      <path
         style="color:#000000;font-style:normal;font-variant:normal;font-weight:normal;font-stretch:normal;font-size:medium;line-height:normal;font-family:sans-serif;font-variant-ligatures:normal;font-variant-position:normal;font-variant-caps:normal;font-variant-numeric:normal;font-variant-alternates:normal;font-feature-settings:normal;text-indent:0;text-align:start;text-decoration:none;text-decoration-line:none;text-decoration-style:solid;text-decoration-color:#000000;letter-spacing:normal;word-spacing:normal;text-transform:none;writing-mode:lr-tb;direction:ltr;text-orientation:mixed;dominant-baseline:auto;baseline-shift:baseline;text-anchor:start;white-space:normal;shape-padding:0;clip-rule:nonzero;display:inline;overflow:visible;visibility:visible;opacity:1;isolation:auto;mix-blend-mode:normal;color-interpolation:sRGB;color-interpolation-filters:linearRGB;solid-color:#000000;solid-opacity:1;vector-effect:none;fill:#000000;fill-opacity:1;fill-rule:evenodd;stroke:none;stroke-width:6;stroke-linecap:round;stroke-linejoin:round;stroke-miterlimit:4;stroke-dasharray:none;stroke-dashoffset:0;stroke-opacity:1;color-rendering:auto;image-rendering:auto;shape-rendering:auto;text-rendering:auto;enable-background:accumulate"
         d="m 90.539062,81.457031 c -4.056968,-0.05738 -4.056968,6.057376 0,6 h 29.999998 c 4.05697,0.05738 4.05697,-6.057376 0,-6 z"
         id="path870"
         inkscape:connector-curvature="0"
         sodipodi:nodetypes="ccccc" />
      <path
         style="color:#000000;font-style:normal;font-variant:normal;font-weight:normal;font-stretch:normal;font-size:medium;line-height:normal;font-family:sans-serif;font-variant-ligatures:normal;font-variant-position:normal;font-variant-caps:normal;font-variant-numeric:normal;font-variant-alternates:normal;font-feature-settings:normal;text-indent:0;text-align:start;text-decoration:none;text-decoration-line:none;text-decoration-style:solid;text-decoration-color:#000000;letter-spacing:normal;word-spacing:normal;text-transform:none;writing-mode:lr-tb;direction:ltr;text-orientation:mixed;dominant-baseline:auto;baseline-shift:baseline;text-anchor:start;white-space:normal;shape-padding:0;clip-rule:nonzero;display:inline;overflow:visible;visibility:visible;opacity:1;isolation:auto;mix-blend-mode:normal;color-interpolation:sRGB;color-interpolation-filters:linearRGB;solid-color:#000000;solid-opacity:1;vector-effect:none;fill:#000000;fill-opacity:1;fill-rule:nonzero;stroke:none;stroke-width:6;stroke-linecap:round;stroke-linejoin:round;stroke-miterlimit:4;stroke-dasharray:none;stroke-dashoffset:0;stroke-opacity:1;color-rendering:auto;image-rendering:auto;shape-rendering:auto;text-rendering:auto;enable-background:accumulate"
         d="m 70.539062,63.957031 c -3.002032,0 -5.5,2.497968 -5.5,5.5 0,3.002032 2.497968,5.5 5.5,5.5 3.002033,0 5.500001,-2.497968 5.5,-5.5 10e-7,-3.002032 -2.497967,-5.5 -5.5,-5.5 z"
         id="path882"
         inkscape:connector-curvature="0"
         sodipodi:nodetypes="sssss" />
      <path
         style="color:#000000;font-style:normal;font-variant:normal;font-weight:normal;font-stretch:normal;font-size:medium;line-height:normal;font-family:sans-serif;font-variant-ligatures:normal;font-variant-position:normal;font-variant-caps:normal;font-variant-numeric:normal;font-variant-alternates:normal;font-feature-settings:normal;text-indent:0;text-align:start;text-decoration:none;text-decoration-line:none;text-decoration-style:solid;text-decoration-color:#000000;letter-spacing:normal;word-spacing:normal;text-transform:none;writing-mode:lr-tb;direction:ltr;text-orientation:mixed;dominant-baseline:auto;baseline-shift:baseline;text-anchor:start;white-space:normal;shape-padding:0;clip-rule:nonzero;display:inline;overflow:visible;visibility:visible;opacity:1;isolation:auto;mix-blend-mode:normal;color-interpolation:sRGB;color-interpolation-filters:linearRGB;solid-color:#000000;solid-opacity:1;vector-effect:none;fill:#000000;fill-opacity:1;fill-rule:nonzero;stroke:none;stroke-width:6;stroke-linecap:round;stroke-linejoin:round;stroke-miterlimit:4;stroke-dasharray:none;stroke-dashoffset:0;stroke-opacity:1;color-rendering:auto;image-rendering:auto;shape-rendering:auto;text-rendering:auto;enable-background:accumulate"
         d="m 140.53906,63.957031 c -3.00203,0 -5.5,2.497968 -5.5,5.5 0,3.002032 2.49797,5.5 5.5,5.5 3.00203,0 5.5,-2.497968 5.5,-5.5 0,-3.002032 -2.49797,-5.5 -5.5,-5.5 z"
         id="circle884"
         inkscape:connector-curvature="0"
         sodipodi:nodetypes="sssss" />
      <path
         style="color:#000000;font-style:normal;font-variant:normal;font-weight:normal;font-stretch:normal;font-size:medium;line-height:normal;font-family:sans-serif;font-variant-ligatures:normal;font-variant-position:normal;font-variant-caps:normal;font-variant-numeric:normal;font-variant-alternates:normal;font-feature-settings:normal;text-indent:0;text-align:start;text-decoration:none;text-decoration-line:none;text-decoration-style:solid;text-decoration-color:#000000;letter-spacing:normal;word-spacing:normal;text-transform:none;writing-mode:lr-tb;direction:ltr;text-orientation:mixed;dominant-baseline:auto;baseline-shift:baseline;text-anchor:start;white-space:normal;shape-padding:0;clip-rule:nonzero;display:inline;overflow:visible;visibility:visible;opacity:1;isolation:auto;mix-blend-mode:normal;color-interpolation:sRGB;color-interpolation-filters:linearRGB;solid-color:#000000;solid-opacity:1;vector-effect:none;fill:#000000;fill-opacity:1;fill-rule:evenodd;stroke:none;stroke-width:6;stroke-linecap:round;stroke-linejoin:round;stroke-miterlimit:4;stroke-dasharray:none;stroke-dashoffset:0;stroke-opacity:1;color-rendering:auto;image-rendering:auto;shape-rendering:auto;text-rendering:auto;enable-background:accumulate"
         d="m 165.58594,12.138672 c -0.81082,-0.0072 -1.59004,0.314048 -2.16016,0.890625 l -0.002,0.002 -16.28516,13.398438 c -3.23654,2.524982 0.70855,7.321363 3.81055,4.632812 l 3.7207,-3.060547 -10.35351,17.933594 c -5.69322,-2.779493 -12.00852,-4.478564 -18.7773,-4.478563 H 85.539062 c -6.768781,10e-7 -13.084075,1.69907 -18.777343,4.478516 L 56.408203,28.001953 60.128906,31.0625 c 3.102006,2.688621 7.047157,-2.10784 3.810547,-4.632812 L 47.632812,13.013672 c -2.171759,-2.150247 -5.792357,-0.05634 -5.011718,2.898437 0.0013,0.0065 0.0026,0.01302 0.0039,0.01953 l 3.458984,20.80664 c 0.655891,3.947114 6.575813,2.962739 5.919922,-0.984375 l -0.791015,-4.75 10.273437,17.792969 C 56.91326,51.885301 52.967333,55.83123 49.878906,60.404297 l -17.792968,-10.273438 4.75,0.791016 c 3.946613,0.656249 4.930987,-5.263673 0.984374,-5.919922 L 16.988281,41.537109 c -2.957779,-0.778486 -5.047777,2.849355 -2.890625,5.017579 0.0045,0.0052 0.0091,0.01043 0.01367,0.01562 l 13.400391,16.289063 c 2.532506,3.17908 7.265088,-0.715524 4.632812,-3.8125 l -3.060547,-3.720703 17.933594,10.353516 c -2.779447,5.693267 -4.478516,12.008562 -4.478516,18.777343 -10e-7,10.290739 3.753105,19.603133 9.769532,27.000003 h -16.76953 c -0.795597,1.5e-4 -1.558559,0.3163 -2.121093,0.87891 l -7.109375,7.10937 -18.4941409,8.27344 c -3.7633357,1.58924 -1.2442063,7.22212 2.4492189,5.47656 l 4.152344,-1.85742 -2.248047,2.24805 c -2.9452044,2.82752 1.414668,7.18739 4.242187,4.24218 l 2.248047,-2.24804 -1.857422,4.15234 c -1.745424,3.69337 3.887269,6.21242 5.476563,2.44922 l 8.273437,-18.49414 6.230469,-6.23047 h 21.257812 c 0.07104,-1.5e-4 0.142044,-0.003 0.212891,-0.008 7.439217,6.15863 16.86197,10.00781 27.287109,10.00781 h 39.999998 c 10.4237,0 19.84639,-3.8468 27.28516,-10.00391 0.0715,0.004 0.1432,0.005 0.21484,0.004 h 21.25782 l 6.23046,6.23047 8.27344,18.49414 c 1.58925,3.76331 7.2221,1.24419 5.47656,-2.44922 l -1.85742,-4.15234 2.24805,2.24804 c 2.82752,2.94511 7.18729,-1.41466 4.24219,-4.24218 l -2.24805,-2.24805 4.15234,1.85742 c 3.69342,1.74554 6.21254,-3.88732 2.44922,-5.47656 l -18.49414,-8.27344 -7.10937,-7.10937 c -0.56254,-0.56262 -1.3255,-0.87876 -2.1211,-0.87891 h -16.76953 c 6.01643,-7.39687 9.76953,-16.709265 9.76953,-27.000003 0,-6.768781 -1.69907,-13.084075 -4.47851,-18.777343 l 17.93359,-10.353516 -3.06055,3.720703 c -2.6319,3.096948 2.10027,6.991212 4.63282,3.8125 l 13.42578,-16.318359 c 2.1354,-2.176454 0.0397,-5.78099 -2.90821,-5.001954 -0.006,0.0013 -0.013,0.0026 -0.0195,0.0039 l -20.80664,3.458984 c -3.94694,0.656017 -2.96256,6.575939 0.98438,5.919922 l 4.75,-0.791016 -17.79297,10.273438 C 158.11082,55.831118 154.1649,51.88519 149.59183,48.796764 l 10.27343,-17.792969 -0.79101,4.75 c -0.65649,3.946787 5.26343,4.931162 5.91992,0.984375 l 3.46484,-20.832031 c 0.50068,-1.892393 -0.91561,-3.749663 -2.87304,-3.767578 z M 85.539062,47.457031 h 39.999998 c 20.54989,-4e-6 37,16.450111 37,37 0,20.549899 -16.45011,36.999999 -37,36.999999 H 85.539062 c -20.549888,0 -37.000002,-16.4501 -37,-36.999999 0,-20.549888 16.450111,-36.999999 37,-37 z"
         id="path918"
         inkscape:connector-curvature="0"
         sodipodi:nodetypes="cccccccssccccccccccccccccccccccsccccccccccccccccssccccccccccccccccsccccccccccccccccccsssssss" />
    </g>
  </g>
</svg>
